<svg height="480pt" viewBox="0 0 480 480" width="480pt" xmlns="http://www.w3.org/2000/svg" xmlns:xlink="http://www.w3.org/1999/xlink"><linearGradient id="a"><stop offset="0" stop-color="#fff200"/><stop offset="1" stop-color="#cd118c"/></linearGradient><linearGradient id="b" gradientUnits="userSpaceOnUse" x1="-13.904" x2="482.096" xlink:href="#a" y1="472.584" y2="8.584"/><linearGradient id="c" gradientUnits="userSpaceOnUse" x1="8.912" x2="504.912" xlink:href="#a" y1="496.976" y2="32.976"/><linearGradient id="d" gradientUnits="userSpaceOnUse" x1="-11.44" x2="484.56" xlink:href="#a" y1="475.216" y2="11.216"/><path d="m240 96c-50.582031.003906-97.453125 26.546875-123.472656 69.921875-26.019532 43.378906-27.375 97.226563-3.566406 141.855469 2.085937 3.894531 6.933593 5.363281 10.832031 3.277344 3.894531-2.085938 5.363281-6.933594 3.277343-10.832032-28.734374-53.855468-15.445312-120.507812 31.75-159.222656 47.195313-38.714844 115.164063-38.714844 162.359376 0 47.195312 38.714844 60.484374 105.367188 31.75 159.222656-2.085938 3.898438-.617188 8.746094 3.277343 10.832032 3.898438 2.085937 8.746094.617187 10.832031-3.277344 23.808594-44.628906 22.453126-98.476563-3.566406-141.855469-26.019531-43.375-72.890625-69.917969-123.472656-69.921875zm0 0" fill="url(#b)"/><path d="m316 172.359375c-3.828125-2.207031-8.71875-.898437-10.929688 2.929687l-65.070312 112.710938c-8.835938 0-16 7.164062-16 16s7.164062 16 16 16 16-7.164062 16-16c-.015625-2.789062-.769531-5.523438-2.183594-7.929688l65.113282-112.796874c2.195312-3.824219.886718-8.703126-2.929688-10.914063zm0 0" fill="url(#c)"/><g fill="url(#d)"><path d="m240 0c-132.546875 0-240 107.453125-240 240s107.453125 240 240 240 240-107.453125 240-240c-.148438-132.484375-107.515625-239.851562-240-240zm0 464c-123.710938 0-224-100.289062-224-224s100.289062-224 224-224 224 100.289062 224 224c-.140625 123.652344-100.347656 223.859375-224 224zm0 0"/><path d="m240 24c-119.292969 0-216 96.707031-216 216s96.707031 216 216 216 216-96.707031 216-216c-.132812-119.238281-96.761719-215.867188-216-216zm0 416c-110.457031 0-200-89.542969-200-200s89.542969-200 200-200 200 89.542969 200 200c-.125 110.40625-89.59375 199.875-200 200zm0 0"/></g></svg>