<?xml version="1.0"?>
<svg xmlns="http://www.w3.org/2000/svg" height="512px" viewBox="-16 0 448 448" width="512px" class=""><g><path d="m64 152h80v80h-80zm0 0" data-original="#000000" class="active-path" data-old_color="#3B0D0D" fill="#888888"/><path d="m416 88c0-13.253906-10.746094-24-24-24h-56v344c0 22.089844 17.910156 40 40 40s40-17.910156 40-40zm0 0" data-original="#000000" class="active-path" data-old_color="#3B0D0D" fill="#888888"/><path d="m0 408c.0273438 22.082031 17.917969 39.972656 40 40h296.886719c-10.800781-10.503906-16.890625-24.933594-16.886719-40v-384c0-13.253906-10.746094-24-24-24h-272c-13.253906 0-24 10.746094-24 24zm224-16h-80v-16h80zm-48-64v16h-80v-16zm-16-32v-16h48v16zm112 96h-32v-16h32zm0-48h-80v-16h80zm0-48h-48v-16h48zm0-48h-80v-16h80zm0-48h-80v-16h80zm-40-120h24v-8h-16c-4.417969 0-8-3.582031-8-8v-24c0-4.417969 3.582031-8 8-8h32v16h-24v8h16c4.417969 0 8 3.582031 8 8v24c0 4.417969-3.582031 8-8 8h-32zm-64-48h16v22.113281l.839844-1.6875c1.503906-2.523437 4.222656-4.070312 7.160156-4.070312s5.65625 1.546875 7.160156 4.070312l.839844 1.6875v-22.113281h16v56c.003906 3.714844-2.550781 6.941406-6.164062 7.792969-3.613282.851562-7.339844-.894531-8.996094-4.21875l-8.839844-17.6875-8.800781 17.6875c-1.632813 3.375-5.386719 5.160156-9.03125 4.304687-3.648438-.859375-6.210938-4.132812-6.167969-7.878906zm-56 8c0-4.417969 3.582031-8 8-8h32v16h-24v8h16v16h-16v8h24v16h-32c-4.417969 0-8-3.582031-8-8zm-64 0c0-3.527344 2.304688-6.636719 5.679688-7.65625 3.375-1.023438 7.019531.28125 8.976562 3.214844l17.34375 26.042968v-29.601562h16v56c0 3.527344-2.304688 6.636719-5.679688 7.65625-3.375 1.023438-7.019531-.28125-8.976562-3.214844l-17.34375-26.042968v29.601562h-16zm0 112c0-8.835938 7.164062-16 16-16h80c8.835938 0 16 7.164062 16 16v80c0 8.835938-7.164062 16-16 16h-80c-8.835938 0-16-7.164062-16-16zm0 128h96v16h-96zm0 48h32v16h-32zm0 48h80v16h-80zm0 0" data-original="#000000" class="active-path" data-old_color="#3B0D0D" fill="#888888"/></g> </svg>
