<?xml version="1.0"?>
<svg xmlns="http://www.w3.org/2000/svg" height="512px" viewBox="0 -31 512 512" width="512px" class=""><g><path d="m0 360h512v-270h-512zm181-225c0-5.683594 3.222656-10.867188 8.289062-13.417969 5.070313-2.519531 11.191407-1.992187 15.703126 1.421875l120 90c3.78125 2.824219 6.007812 7.277344 6.007812 11.996094s-2.226562 9.171875-6.007812 11.996094l-120 90c-2.636719 1.992187-5.800782 3.003906-8.992188 3.003906-2.285156 0-4.601562-.527344-6.710938-1.582031-5.066406-2.550781-8.289062-7.734375-8.289062-13.417969zm0 0" data-original="#000000" class="active-path" data-old_color="#A87B7B" fill="#888888"/><path d="m271 390h90v60h-90zm0 0" data-original="#000000" class="active-path" data-old_color="#A87B7B" fill="#888888"/><path d="m151 390h90v60h-90zm0 0" data-original="#000000" class="active-path" data-old_color="#A87B7B" fill="#888888"/><path d="m467 0h-76v60h121v-15c0-24.8125-20.1875-45-45-45zm0 0" data-original="#000000" class="active-path" data-old_color="#A87B7B" fill="#888888"/><path d="m211 165v120l80.011719-60zm0 0" data-original="#000000" class="active-path" data-old_color="#A87B7B" fill="#888888"/><path d="m151 0h90v60h-90zm0 0" data-original="#000000" class="active-path" data-old_color="#A87B7B" fill="#888888"/><path d="m0 405c0 24.8125 20.1875 45 45 45h76v-60h-121zm0 0" data-original="#000000" class="active-path" data-old_color="#A87B7B" fill="#888888"/><path d="m271 0h90v60h-90zm0 0" data-original="#000000" class="active-path" data-old_color="#A87B7B" fill="#888888"/><path d="m391 450h76c24.8125 0 45-20.1875 45-45v-15h-121zm0 0" data-original="#000000" class="active-path" data-old_color="#A87B7B" fill="#888888"/><path d="m121 0h-76c-24.8125 0-45 20.1875-45 45v15h121zm0 0" data-original="#000000" class="active-path" data-old_color="#A87B7B" fill="#888888"/></g> </svg>
